<svg xmlns="http://www.w3.org/2000/svg" width="160" height="40" viewBox="0 0 160 40" fill="none">
  <rect x="0" y="0" width="40" height="40" rx="8" fill="#2E5BBA"/>
  <defs>
    <linearGradient id="iconGradient" x1="0%" y1="0%" x2="100%" y2="100%">
      <stop offset="0%" style="stop-color:#2E5BBA;stop-opacity:1" />
      <stop offset="100%" style="stop-color:#1e3f8a;stop-opacity:1" />
    </linearGradient>
    <linearGradient id="textGradient" x1="0%" y1="0%" x2="100%" y2="0%">
      <stop offset="0%" style="stop-color:#303030;stop-opacity:1" />
      <stop offset="100%" style="stop-color:#404040;stop-opacity:1" />
    </linearGradient>
  </defs>
  <rect x="0" y="0" width="40" height="40" rx="8" fill="url(#iconGradient)"/>
  <g transform="translate(20, 20)">
    <path d="M-12 -20 Q-6 -10 0 -20 Q6 -10 12 -20 Q6 -5 0 -10 Q-6 -5 -12 -20 Z" fill="white" opacity="0.3"/>
    <path d="M-12 20 Q-6 10 0 20 Q6 10 12 20 Q6 5 0 10 Q-6 5 -12 20 Z" fill="white" opacity="0.3"/>
    <rect x="-2" y="-12" width="4" height="24" rx="2" fill="white"/>
    <rect x="-12" y="-2" width="24" height="4" rx="2" fill="white"/>
    <circle cx="-8" cy="-8" r="2" fill="white"/>
    <circle cx="8" cy="-8" r="2" fill="white"/>
    <circle cx="-8" cy="8" r="2" fill="white"/>
    <circle cx="8" cy="8" r="2" fill="white"/>
    <line x1="-8" y1="-8" x2="8" y2="-8" stroke="white" stroke-width="1" opacity="0.6"/>
    <line x1="-8" y1="8" x2="8" y2="8" stroke="white" stroke-width="1" opacity="0.6"/>
  </g>
  <text x="52" y="26" font-family="Segoe UI, Roboto, Arial, sans-serif" font-size="16" fill="#303030" font-weight="700" letter-spacing="1">
    CERAGEN
  </text>
  <rect x="52" y="29" width="36" height="1" rx="0.5" fill="#2E5BBA"/>
</svg>